<svg width="19" height="18" viewBox="0 0 19 18" fill="none" xmlns="http://www.w3.org/2000/svg">
<path fill-rule="evenodd" clip-rule="evenodd" d="M18.0333 8.98818C18.0333 9.56527 17.9746 10.1416 17.8592 10.7033C17.7467 11.2517 17.58 11.7901 17.3617 12.3048C17.1483 12.8104 16.8837 13.2976 16.5745 13.752C16.27 14.2035 15.9191 14.627 15.5337 15.0131C15.1474 15.3976 14.7224 15.7475 14.2711 16.0534C13.8152 16.3604 13.3273 16.6246 12.8215 16.8389C12.306 17.0561 11.7664 17.2226 11.2184 17.3349C10.6559 17.4506 10.0776 17.5096 9.49962 17.5096C8.92126 17.5096 8.3429 17.4506 7.78121 17.3349C7.23244 17.2226 6.69283 17.0561 6.17779 16.8389C5.67195 16.6246 5.18357 16.3604 4.72772 16.0534C4.27645 15.7475 3.85143 15.3976 3.46599 15.0131C3.08015 14.627 2.72928 14.2035 2.42427 13.752C2.11675 13.2976 1.85172 12.8104 1.63755 12.3048C1.41918 11.7901 1.25211 11.2517 1.13919 10.7033C1.02503 10.1416 0.966675 9.56527 0.966675 8.98818C0.966675 8.41065 1.02499 7.83313 1.13922 7.27261C1.25215 6.7242 1.41922 6.18496 1.63759 5.67111C1.85175 5.16516 2.11678 4.67751 2.4243 4.22313C2.72931 3.77127 3.08018 3.3485 3.46602 2.96195C3.85146 2.57746 4.27648 2.2284 4.72775 1.923C5.1836 1.61466 5.67198 1.35047 6.17783 1.13575C6.69286 0.918096 7.23244 0.751269 7.78124 0.639772C8.34294 0.524941 8.9213 0.466675 9.49966 0.466675C10.0776 0.466675 10.6559 0.524941 11.2185 0.639772C11.7664 0.751302 12.306 0.918129 12.8215 1.13575C13.3273 1.35044 13.8153 1.61466 14.2711 1.923C14.7224 2.2284 15.1475 2.57746 15.5337 2.96195C15.9191 3.3485 16.27 3.77127 16.5746 4.22313C16.8837 4.67751 17.1483 5.16519 17.3617 5.67111C17.58 6.18496 17.7467 6.7242 17.8592 7.27261C17.9746 7.83313 18.0333 8.41065 18.0333 8.98818ZM6.39026 2.40605C4.35805 3.36433 2.84131 5.23422 2.36836 7.48775C2.56048 7.48942 5.5973 7.52771 9.09622 6.59938C7.83492 4.36166 6.48735 2.53549 6.39026 2.40605ZM9.7 7.71995C5.94774 8.84169 2.34711 8.76097 2.21795 8.75601C2.21585 8.83422 2.21211 8.90993 2.21211 8.98817C2.21211 10.8576 2.91839 12.5619 4.07929 13.8506C4.07678 13.8468 6.07108 10.3138 10.0038 9.04393C10.0988 9.01232 10.1955 8.984 10.2913 8.95655C10.1084 8.54298 9.90875 8.12855 9.7 7.71995ZM14.3124 3.52659C13.0293 2.39689 11.3447 1.71164 9.4996 1.71164C8.90748 1.71164 8.33286 1.78321 7.78242 1.91552C7.89157 2.062 9.26042 3.87529 10.5067 6.16041C13.2565 5.13103 14.2944 3.55321 14.3124 3.52659ZM10.788 10.1624C10.7718 10.1677 10.7556 10.1724 10.7397 10.1782C6.43997 11.675 5.03583 14.6914 5.02064 14.7244C6.25781 15.6851 7.80956 16.2647 9.49965 16.2647C10.5088 16.2647 11.4701 16.0595 12.3448 15.688C12.2368 15.0522 11.8135 12.8237 10.788 10.1624ZM13.5719 15.0231C15.2082 13.9205 16.3703 12.1696 16.6945 10.1415C16.5445 10.0933 14.5057 9.44874 12.1535 9.82531C13.1093 12.4484 13.4977 14.5846 13.5719 15.0231ZM11.0676 7.24475C11.2368 7.59178 11.4006 7.94498 11.5518 8.29995C11.6056 8.42729 11.6581 8.55212 11.7093 8.67693C14.2128 8.36235 16.6792 8.89161 16.7846 8.91323C16.7679 7.18815 16.15 5.60493 15.1275 4.36543C15.1137 4.38494 13.9449 6.07136 11.0676 7.24475Z" fill="white"/>
</svg>
