<svg width="156" height="24" viewBox="0 0 156 24" fill="none" xmlns="http://www.w3.org/2000/svg">
<path d="M19.5411 13.1341L14.1502 22.3669L8.75931 13.1341H19.5411ZM20.9853 12.3088H7.30927L14.1502 24L20.9853 12.3088Z" fill="#263238"/>
<path d="M28.9139 1.65038L34.3048 10.8833H23.5229L28.9139 1.65038ZM28.9139 0L22.0729 11.6912H35.7548L28.9139 0Z" fill="#263238"/>
<path d="M0.754791 0L6.4907 10.3409L12.7586 0.259661L0.754791 0Z" fill="#4CAF4F"/>
<path d="M14.1503 0.905762L20.1669 11.1889H8.12207L14.1503 0.905762Z" fill="#4CAF4F"/>
<path d="M21.7163 13.4341L27.7387 24H15.4074L21.5292 13.4341H21.7163Z" fill="#4CAF4F"/>
<path d="M23.0201 12.7935L28.9139 23.1978L34.8895 12.7935H23.0201Z" fill="#4CAF4F"/>
<path d="M60.7874 1.66895V22.0326H57.0687L48.2093 9.21582H48.0602V22.0326H43.7548V1.66895H47.5332L56.3229 14.4758H56.5019V1.66895H60.7874Z" fill="#263238"/>
<path d="M71.2253 22.3309C69.6543 22.3309 68.302 22.0127 67.1685 21.3763C66.0416 20.7333 65.1732 19.8252 64.5634 18.6519C63.9535 17.472 63.6486 16.0766 63.6486 14.4658C63.6486 12.8948 63.9535 11.516 64.5634 10.3295C65.1732 9.1429 66.0316 8.21819 67.1386 7.55531C68.2523 6.89243 69.5581 6.56099 71.0563 6.56099C72.0638 6.56099 73.0018 6.7234 73.8702 7.04821C74.7452 7.36639 75.5075 7.84698 76.1571 8.48997C76.8134 9.13296 77.3238 9.94167 77.6884 10.9161C78.0529 11.8839 78.2352 13.0174 78.2352 14.3167V15.48H65.3389V12.855H74.248C74.248 12.2452 74.1154 11.7049 73.8503 11.2343C73.5851 10.7636 73.2172 10.3957 72.7466 10.1306C72.2826 9.85881 71.7423 9.72292 71.1259 9.72292C70.4829 9.72292 69.9128 9.87207 69.4156 10.1704C68.9251 10.462 68.5406 10.8564 68.2622 11.3536C67.9838 11.8441 67.8413 12.391 67.8347 12.9942V15.49C67.8347 16.2457 67.9739 16.8986 68.2523 17.4488C68.5373 17.999 68.9384 18.4232 69.4554 18.7215C69.9724 19.0198 70.5856 19.1689 71.2949 19.1689C71.7655 19.1689 72.1964 19.1027 72.5875 18.9701C72.9786 18.8375 73.3134 18.6386 73.5918 18.3735C73.8702 18.1083 74.0823 17.7835 74.2281 17.3991L78.1457 17.6576C77.9469 18.5989 77.5392 19.4208 76.9227 20.1235C76.3129 20.8195 75.5241 21.3631 74.5563 21.7542C73.5951 22.1386 72.4848 22.3309 71.2253 22.3309Z" fill="#263238"/>
<path d="M84.2658 6.75985L87.0697 12.0993L89.9433 6.75985H94.2885L89.8638 14.3962L94.4078 22.0326H90.0825L87.0697 16.7528L84.1067 22.0326H79.7317L84.2658 14.3962L79.8908 6.75985H84.2658Z" fill="#263238"/>
<path d="M103.158 22.3309C101.593 22.3309 100.248 21.9994 99.1209 21.3366C98.0006 20.6671 97.1389 19.739 96.5357 18.5525C95.9391 17.3659 95.6408 16.0004 95.6408 14.4559C95.6408 12.8915 95.9424 11.5193 96.5456 10.3394C97.1554 9.15285 98.0205 8.22813 99.1408 7.56525C100.261 6.89574 101.593 6.56099 103.138 6.56099C104.47 6.56099 105.637 6.80294 106.638 7.28684C107.639 7.77074 108.431 8.4502 109.014 9.3252C109.598 10.2002 109.919 11.2277 109.979 12.4076H105.982C105.869 11.6453 105.571 11.0321 105.087 10.5681C104.61 10.0974 103.983 9.86213 103.208 9.86213C102.551 9.86213 101.978 10.0411 101.487 10.3991C101.003 10.7504 100.626 11.2641 100.354 11.9403C100.082 12.6164 99.9462 13.435 99.9462 14.3962C99.9462 15.3707 100.079 16.1992 100.344 16.882C100.616 17.5648 100.997 18.0851 101.487 18.4431C101.978 18.801 102.551 18.98 103.208 18.98C103.691 18.98 104.126 18.8806 104.51 18.6817C104.901 18.4829 105.223 18.1945 105.475 17.8167C105.733 17.4322 105.902 16.9715 105.982 16.4346H109.979C109.913 17.6012 109.594 18.6287 109.024 19.517C108.461 20.3986 107.682 21.088 106.688 21.5851C105.693 22.0823 104.517 22.3309 103.158 22.3309Z" fill="#263238"/>
<path d="M119.651 22.3309C118.08 22.3309 116.728 22.0127 115.594 21.3763C114.467 20.7333 113.599 19.8252 112.989 18.6519C112.379 17.472 112.074 16.0766 112.074 14.4658C112.074 12.8948 112.379 11.516 112.989 10.3295C113.599 9.1429 114.457 8.21819 115.564 7.55531C116.678 6.89243 117.984 6.56099 119.482 6.56099C120.49 6.56099 121.428 6.7234 122.296 7.04821C123.171 7.36639 123.933 7.84698 124.583 8.48997C125.239 9.13296 125.75 9.94167 126.114 10.9161C126.479 11.8839 126.661 13.0174 126.661 14.3167V15.48H113.765V12.855H122.674C122.674 12.2452 122.541 11.7049 122.276 11.2343C122.011 10.7636 121.643 10.3957 121.172 10.1306C120.708 9.85881 120.168 9.72292 119.552 9.72292C118.909 9.72292 118.339 9.87207 117.841 10.1704C117.351 10.462 116.966 10.8564 116.688 11.3536C116.41 11.8441 116.267 12.391 116.26 12.9942V15.49C116.26 16.2457 116.4 16.8986 116.678 17.4488C116.963 17.999 117.364 18.4232 117.881 18.7215C118.398 19.0198 119.011 19.1689 119.721 19.1689C120.191 19.1689 120.622 19.1027 121.013 18.9701C121.404 18.8375 121.739 18.6386 122.018 18.3735C122.296 18.1083 122.508 17.7835 122.654 17.3991L126.572 17.6576C126.373 18.5989 125.965 19.4208 125.349 20.1235C124.739 20.8195 123.95 21.3631 122.982 21.7542C122.021 22.1386 120.911 22.3309 119.651 22.3309Z" fill="#263238"/>
<path d="M133.661 13.203V22.0326H129.425V6.75985H133.462V9.45446H133.641C133.979 8.5662 134.546 7.86355 135.341 7.3465C136.137 6.82283 137.101 6.56099 138.235 6.56099C139.295 6.56099 140.22 6.793 141.009 7.25701C141.798 7.72103 142.411 8.38391 142.849 9.24565C143.286 10.1008 143.505 11.1216 143.505 12.3082V22.0326H139.269V13.0638C139.276 12.1292 139.037 11.4 138.553 10.8763C138.069 10.346 137.403 10.0809 136.554 10.0809C135.984 10.0809 135.481 10.2035 135.043 10.4488C134.612 10.694 134.274 11.052 134.029 11.5226C133.79 11.9867 133.668 12.5468 133.661 13.203Z" fill="#263238"/>
<path d="M154.967 6.75985V9.94167H145.769V6.75985H154.967ZM147.857 3.10076H152.093V17.3394C152.093 17.7305 152.153 18.0354 152.272 18.2542C152.391 18.4663 152.557 18.6154 152.769 18.7016C152.988 18.7878 153.24 18.8309 153.525 18.8309C153.724 18.8309 153.923 18.8143 154.122 18.7812C154.32 18.7414 154.473 18.7116 154.579 18.6917L155.245 21.8437C155.033 21.91 154.735 21.9862 154.35 22.0724C153.966 22.1652 153.498 22.2215 152.948 22.2414C151.927 22.2812 151.033 22.1453 150.264 21.8337C149.501 21.5222 148.908 21.0383 148.484 20.382C148.06 19.7258 147.851 18.8972 147.857 17.8962V3.10076Z" fill="#263238"/>
</svg>
