<svg width="115" height="19" viewBox="0 0 115 19" fill="none" xmlns="http://www.w3.org/2000/svg">
<path d="M13.9842 10.3443L9.9713 17.2171L5.95841 10.3443H13.9842ZM15.0593 9.72998H4.87903L9.9713 18.4327L15.0593 9.72998Z" fill="#263238"/>
<path d="M20.9612 1.7959L24.9741 8.6687H16.9483L20.9612 1.7959ZM20.9612 0.567383L15.8689 9.27007H26.0535L20.9612 0.567383Z" fill="#263238"/>
<path d="M0 0.567383L4.26971 8.26494L8.93546 0.76067L0 0.567383Z" fill="#4CAF4F"/>
<path d="M9.97145 1.2417L14.4501 8.8963H5.48413L9.97145 1.2417Z" fill="#4CAF4F"/>
<path d="M15.6033 10.5674L20.0863 18.4325H10.9071L15.464 10.5674H15.6033Z" fill="#4CAF4F"/>
<path d="M16.574 10.0906L20.9612 17.8354L25.4093 10.0906H16.574Z" fill="#4CAF4F"/>
<path d="M44.6873 1.80981V16.9682H41.9191L35.3243 7.42758H35.2133V16.9682H32.0084V1.80981H34.821L41.364 11.343H41.4972V1.80981H44.6873Z" fill="#263238"/>
<path d="M52.457 17.1902C51.2876 17.1902 50.281 16.9534 49.4372 16.4797C48.5983 16.001 47.9519 15.325 47.498 14.4516C47.044 13.5733 46.817 12.5346 46.817 11.3356C46.817 10.1661 47.044 9.1398 47.498 8.25655C47.9519 7.3733 48.5909 6.68496 49.415 6.19152C50.244 5.69809 51.216 5.45137 52.3312 5.45137C53.0812 5.45137 53.7794 5.57226 54.4258 5.81404C55.0772 6.05089 55.6446 6.40863 56.1282 6.88727C56.6167 7.3659 56.9966 7.96789 57.268 8.69324C57.5394 9.41366 57.6751 10.2574 57.6751 11.2246V12.0905H48.0753V10.1365H54.7071C54.7071 9.68258 54.6084 9.28043 54.411 8.93009C54.2136 8.57975 53.9398 8.30589 53.5894 8.10852C53.244 7.90621 52.8419 7.80506 52.383 7.80506C51.9044 7.80506 51.48 7.91608 51.1099 8.13812C50.7448 8.35524 50.4586 8.64883 50.2514 9.01891C50.0441 9.38405 49.938 9.79113 49.9331 10.2402V12.0979C49.9331 12.6605 50.0367 13.1465 50.2439 13.556C50.4561 13.9656 50.7547 14.2814 51.1395 14.5034C51.5244 14.7255 51.9808 14.8365 52.5088 14.8365C52.8592 14.8365 53.1799 14.7872 53.471 14.6885C53.7621 14.5898 54.0113 14.4418 54.2186 14.2444C54.4258 14.047 54.5837 13.8052 54.6923 13.519L57.6085 13.7115C57.4604 14.4122 57.157 15.024 56.6981 15.5471C56.2441 16.0652 55.6569 16.4698 54.9365 16.7609C54.221 17.0471 53.3945 17.1902 52.457 17.1902Z" fill="#263238"/>
<path d="M62.1641 5.5994L64.2514 9.57402L66.3904 5.5994H69.6249L66.3312 11.2838L69.7137 16.9682H66.494L64.2514 13.0379L62.0457 16.9682H58.789L62.1641 11.2838L58.9074 5.5994H62.1641Z" fill="#263238"/>
<path d="M76.227 17.1902C75.0625 17.1902 74.0608 16.9435 73.222 16.45C72.3881 15.9517 71.7466 15.2609 71.2976 14.3776C70.8535 13.4944 70.6315 12.4779 70.6315 11.3282C70.6315 10.1637 70.856 9.14227 71.305 8.26395C71.759 7.3807 72.4029 6.69236 73.2368 6.19892C74.0707 5.70055 75.0625 5.45137 76.2122 5.45137C77.204 5.45137 78.0725 5.63147 78.8176 5.99168C79.5627 6.35189 80.1523 6.85766 80.5865 7.50899C81.0208 8.16033 81.2601 8.92515 81.3045 9.80347H78.3291C78.2452 9.23602 78.0231 8.77959 77.6629 8.43419C77.3077 8.08385 76.8414 7.90868 76.264 7.90868C75.7755 7.90868 75.3487 8.0419 74.9836 8.30836C74.6234 8.56988 74.3421 8.95229 74.1398 9.4556C73.9375 9.9589 73.8363 10.5683 73.8363 11.2838C73.8363 12.0091 73.935 12.6259 74.1324 13.1342C74.3347 13.6424 74.6184 14.0297 74.9836 14.2962C75.3487 14.5627 75.7755 14.6959 76.264 14.6959C76.6242 14.6959 76.9474 14.6219 77.2336 14.4738C77.5248 14.3258 77.7641 14.1112 77.9516 13.8299C78.144 13.5437 78.2699 13.2008 78.3291 12.8011H81.3045C81.2551 13.6695 81.0183 14.4344 80.5939 15.0956C80.1745 15.7518 79.5947 16.265 78.8546 16.6351C78.1144 17.0052 77.2386 17.1902 76.227 17.1902Z" fill="#263238"/>
<path d="M88.5043 17.1902C87.3349 17.1902 86.3283 16.9534 85.4845 16.4797C84.6457 16.001 83.9993 15.325 83.5453 14.4516C83.0913 13.5733 82.8644 12.5346 82.8644 11.3356C82.8644 10.1661 83.0913 9.1398 83.5453 8.25655C83.9993 7.3733 84.6383 6.68496 85.4623 6.19152C86.2913 5.69809 87.2633 5.45137 88.3785 5.45137C89.1285 5.45137 89.8267 5.57226 90.4731 5.81404C91.1245 6.05089 91.6919 6.40863 92.1755 6.88727C92.664 7.3659 93.0439 7.96789 93.3153 8.69324C93.5867 9.41366 93.7224 10.2574 93.7224 11.2246V12.0905H84.1226V10.1365H90.7544C90.7544 9.68258 90.6557 9.28043 90.4583 8.93009C90.261 8.57975 89.9871 8.30589 89.6368 8.10852C89.2914 7.90621 88.8892 7.80506 88.4303 7.80506C87.9517 7.80506 87.5273 7.91608 87.1572 8.13812C86.7921 8.35524 86.5059 8.64883 86.2987 9.01891C86.0914 9.38405 85.9853 9.79113 85.9804 10.2402V12.0979C85.9804 12.6605 86.084 13.1465 86.2913 13.556C86.5034 13.9656 86.802 14.2814 87.1868 14.5034C87.5717 14.7255 88.0282 14.8365 88.5561 14.8365C88.9065 14.8365 89.2272 14.7872 89.5183 14.6885C89.8095 14.5898 90.0586 14.4418 90.2659 14.2444C90.4731 14.047 90.631 13.8052 90.7396 13.519L93.6558 13.7115C93.5078 14.4122 93.2043 15.024 92.7454 15.5471C92.2914 16.0652 91.7043 16.4698 90.9838 16.7609C90.2684 17.0471 89.4418 17.1902 88.5043 17.1902Z" fill="#263238"/>
<path d="M98.9331 10.3956V16.9682H95.78V5.5994H98.785V7.60522H98.9183C99.1699 6.94401 99.5918 6.42097 100.184 6.03609C100.776 5.64628 101.494 5.45137 102.338 5.45137C103.127 5.45137 103.816 5.62407 104.403 5.96948C104.99 6.31488 105.446 6.80832 105.772 7.44978C106.098 8.08631 106.261 8.84621 106.261 9.72945V16.9682H103.108V10.292C103.112 9.59623 102.935 9.05345 102.575 8.66363C102.214 8.26889 101.719 8.07151 101.087 8.07151C100.663 8.07151 100.288 8.1628 99.9619 8.34537C99.6412 8.52794 99.3895 8.79439 99.2069 9.14473C99.0293 9.49014 98.938 9.90709 98.9331 10.3956Z" fill="#263238"/>
<path d="M114.793 5.5994V7.96789H107.946V5.5994H114.793ZM109.501 2.87564H112.654V13.4746C112.654 13.7658 112.698 13.9927 112.787 14.1556C112.876 14.3135 112.999 14.4245 113.157 14.4886C113.32 14.5528 113.507 14.5849 113.719 14.5849C113.868 14.5849 114.016 14.5725 114.164 14.5479C114.312 14.5182 114.425 14.496 114.504 14.4812L115 16.8275C114.842 16.8769 114.62 16.9336 114.334 16.9978C114.048 17.0668 113.7 17.1088 113.29 17.1236C112.53 17.1532 111.864 17.052 111.292 16.8201C110.724 16.5882 110.283 16.228 109.967 15.7395C109.651 15.251 109.496 14.6342 109.501 13.8891V2.87564Z" fill="#263238"/>
</svg>
