<svg width="49" height="48" viewBox="0 0 49 48" fill="none" xmlns="http://www.w3.org/2000/svg">
<path d="M24.5019 13C21.7477 13 19.5054 15.2814 19.5054 18.0703C19.5054 19.8345 20.404 21.3923 21.7608 22.3003C20.122 22.8528 18.704 23.8853 17.664 25.2362C17.089 24.7902 16.4465 24.4316 15.7538 24.1746C16.8042 23.3884 17.4905 22.1255 17.4905 20.7061C17.4905 18.3408 15.5932 16.4045 13.2615 16.4045C10.9299 16.4045 9.03256 18.3408 9.03256 20.7061C9.03256 22.1263 9.71949 23.3898 10.7707 24.176C7.98763 25.2115 6 27.9225 6 31.113V33.3542C6.00028 33.525 6.06807 33.6887 6.18825 33.809C6.30843 33.9296 6.47105 33.9968 6.64051 33.9962H16.3928C16.4164 33.9988 16.44 34.0003 16.4637 34H32.5407C32.5644 34.0003 32.5883 33.9988 32.6116 33.9962H42.3646C42.7152 33.9948 42.9991 33.7079 43 33.3542V31.113C43 27.9225 41.0158 25.2115 38.2342 24.1757C39.2854 23.3898 39.9723 22.126 39.9723 20.7058C39.9723 18.3405 38.075 16.4042 35.7433 16.4042C33.4117 16.4042 31.5144 18.3405 31.5144 20.7058C31.5144 22.1252 32.201 23.3883 33.2513 24.1743C32.5573 24.4319 31.9145 24.7917 31.3386 25.2387C30.2991 23.8871 28.8831 22.8531 27.2444 22.3003C28.6009 21.3923 29.4997 19.8345 29.4997 18.0703C29.4997 15.2814 27.2564 13 24.5021 13H24.5019ZM24.5019 14.2864C26.5619 14.2864 28.2225 15.972 28.2225 18.0703C28.2225 20.1521 26.5878 21.8213 24.5506 21.848C24.5344 21.848 24.5184 21.8457 24.5019 21.8457C24.4854 21.8457 24.4697 21.848 24.4532 21.848C22.4161 21.8216 20.7824 20.1522 20.7824 18.0703C20.7824 15.9717 22.4417 14.2864 24.5016 14.2864H24.5019ZM13.2616 17.6909C14.8961 17.6909 16.2147 19.0284 16.2147 20.706C16.2147 22.3723 14.9131 23.7041 13.2941 23.7222C13.2832 23.7222 13.2727 23.7211 13.2616 23.7211C13.2508 23.7211 13.2402 23.7222 13.2291 23.7222C11.61 23.7041 10.3085 22.372 10.3085 20.706C10.3085 19.0285 11.6271 17.6909 13.2616 17.6909H13.2616ZM35.743 17.6909C37.3774 17.6909 38.696 19.0284 38.696 20.706C38.696 22.3723 37.3945 23.7041 35.7754 23.7222C35.7646 23.7222 35.754 23.7211 35.7429 23.7211C35.7321 23.7211 35.7216 23.7222 35.7105 23.7222C34.0914 23.7041 32.7898 22.372 32.7898 20.706C32.7898 19.0285 34.1085 17.6909 35.7429 17.6909H35.743ZM24.4531 23.1344C24.4693 23.1347 24.4853 23.1367 24.5018 23.1367C24.518 23.1367 24.534 23.1344 24.5505 23.1344C28.6359 23.1608 31.9055 26.4858 31.9055 30.6479L31.9052 32.7131H17.0989V30.6479C17.0989 26.4854 20.3676 23.1609 24.4525 23.1344H24.4531ZM13.2128 25.0101C13.229 25.0104 13.245 25.0124 13.2615 25.0124C13.278 25.0124 13.2937 25.0101 13.3102 25.0101C14.692 25.0213 15.9531 25.5017 16.9573 26.3054C16.2387 27.5873 15.8232 29.0669 15.8232 30.6483V32.7086H7.27538V31.1129C7.27538 27.7302 9.91321 25.0365 13.2126 25.0098L13.2128 25.0101ZM35.6941 25.0101C35.7106 25.0104 35.7263 25.0124 35.7428 25.0124C35.7593 25.0124 35.775 25.0101 35.7915 25.0101C39.0909 25.0365 41.7287 27.7306 41.7287 31.1132V32.7086H33.1766L33.1763 30.6483C33.1763 29.0678 32.7619 27.5893 32.0448 26.3077C33.0492 25.5028 34.3112 25.0213 35.6942 25.0101H35.6941Z" fill="#103E13"/>
</svg>
