<svg width="49" height="48" viewBox="0 0 49 48" fill="none" xmlns="http://www.w3.org/2000/svg">
<path d="M28.6449 23.6446C28.4041 23.6446 28.1805 23.5784 27.9819 23.4719V23.4748C27.9819 23.8536 27.8347 24.2094 27.5675 24.4758C27.3004 24.743 26.9449 24.8903 26.5664 24.8903C26.3221 24.8903 26.0957 24.8224 25.895 24.7131C25.8747 25.0597 25.7362 25.3836 25.489 25.631C25.2219 25.8982 24.8664 26.0454 24.4877 26.0454C23.7354 26.0454 23.1245 25.4541 23.0805 24.7129C22.8477 24.8387 22.5846 24.9046 22.3131 24.8872C21.5731 24.8387 20.9936 24.1993 20.9936 23.4312V17.0645L20.2686 18.3205C19.9925 18.8009 19.4756 19.0991 18.9191 19.0991C18.6479 19.0991 18.38 19.028 18.1428 18.892C17.8474 18.7208 17.636 18.4458 17.5481 18.1169C17.4598 17.7878 17.5055 17.4436 17.6763 17.1486C17.6765 17.1486 20.0483 13.0414 20.193 12.7891C20.2102 12.7512 20.2592 12.6411 20.3009 12.5474C20.3407 12.4578 20.3749 12.366 20.4076 12.2736C21.1229 10.2543 22.8939 8.99998 25.0298 8.99998C27.8035 8.99998 30.0601 11.4469 30.0601 14.4546L30.0603 22.2289C30.0603 22.6073 29.9133 22.9628 29.6464 23.2302C29.3792 23.4974 29.0237 23.6447 28.6449 23.6447L28.6449 23.6446ZM25.0299 9.75212C23.1945 9.75212 21.7317 10.7888 21.1166 12.5251C21.0772 12.6354 21.0362 12.7457 20.9884 12.8531C20.8496 13.1643 20.8496 13.1643 20.8105 13.2091L20.8053 13.2046C20.6117 13.57 20.0364 14.5663 18.3276 17.525C18.2574 17.6463 18.2387 17.7872 18.2746 17.922C18.3108 18.0567 18.3978 18.1703 18.5182 18.2398C18.8918 18.4544 19.4036 18.3159 19.6165 17.9448L21.044 15.4734C21.1293 15.3261 21.3018 15.2538 21.4671 15.2986C21.6316 15.3426 21.7459 15.4918 21.7459 15.6619V23.4314C21.7459 23.798 22.0224 24.1144 22.3624 24.1368C22.5585 24.1471 22.7413 24.0814 22.8786 23.9443C23.0035 23.8194 23.0723 23.6531 23.0723 23.4752V18.3938C23.0723 18.186 23.2407 18.0176 23.4485 18.0176C23.6563 18.0176 23.8248 18.1858 23.8248 18.3938L23.8246 24.6302C23.8246 24.9958 24.1221 25.2934 24.4878 25.2934C24.6654 25.2934 24.8322 25.2246 24.9573 25.0997C25.0822 24.9746 25.151 24.8078 25.151 24.6302V18.3938C25.151 18.186 25.3192 18.0176 25.5272 18.0176C25.735 18.0176 25.9035 18.1858 25.9035 18.3938L25.9032 23.4168V23.4752C25.9032 23.8406 26.2008 24.1381 26.5667 24.1381C26.7441 24.1381 26.9104 24.0691 27.0362 23.9438C27.1611 23.8191 27.2299 23.6528 27.2299 23.4749V18.3936C27.2299 18.1858 27.3981 18.0173 27.6061 18.0173C27.8139 18.0173 27.9824 18.1855 27.9824 18.3936L27.9819 22.2291C27.9819 22.595 28.2795 22.8925 28.6449 22.8925C28.8228 22.8925 28.9891 22.8235 29.114 22.6989C29.2393 22.5736 29.3078 22.4067 29.3078 22.2291L29.3081 14.4548C29.3081 11.862 27.3889 9.7522 25.0298 9.7522L25.0299 9.75212Z" fill="#103E13"/>
<path d="M13.8624 29.048L19.3221 25.7727C19.9803 25.3774 20.8273 25.5454 21.2495 26.1553C21.4036 26.3775 21.4823 26.6364 21.4945 26.9001C21.6981 26.7938 21.9195 26.7361 22.145 26.7361C22.2604 26.7361 22.3763 26.7505 22.4909 26.779C22.8577 26.8706 23.1668 27.0999 23.3612 27.424C23.5558 27.7487 23.6126 28.1291 23.5209 28.4955C23.4363 28.8346 23.2302 29.1199 22.9435 29.3157C23.1439 29.4339 23.3169 29.5953 23.4399 29.8008C23.6345 30.1254 23.6912 30.5057 23.5998 30.8725C23.5082 31.2389 23.2789 31.548 22.9543 31.7429L22.9524 31.744C23.1494 31.8621 23.3192 32.0218 23.4408 32.2242C23.6357 32.5488 23.6924 32.9293 23.6008 33.2961C23.5089 33.6627 23.2797 33.9718 22.9555 34.1664L16.2891 38.1657C15.0449 38.9119 13.6065 39.1694 12.2396 38.8902C10.8604 38.6084 9.71822 37.8157 9.02372 36.6579C7.92463 34.8261 8.08935 32.6619 9.45274 31.0101C9.51518 30.9347 9.57667 30.8579 9.6325 30.7783C9.69164 30.6942 9.76067 30.5952 9.78423 30.5613C9.92535 30.3092 12.2281 26.1603 12.2279 26.1608C12.4604 25.7412 12.8963 25.5037 13.3458 25.5039C13.5555 25.5039 13.7682 25.5555 13.9645 25.6644C14.2015 25.7968 14.4006 25.9898 14.5398 26.2223C14.826 26.6994 14.8362 27.2964 14.5667 27.7796L13.8624 29.048ZM13.8951 26.6091C13.8221 26.4873 13.7217 26.3902 13.599 26.3214C13.3452 26.181 13.0257 26.2724 12.8861 26.5252C11.2383 29.4937 10.6766 30.5054 10.4598 30.8654L10.4648 30.8666C10.4466 30.9269 10.4466 30.9269 10.2483 31.2103C10.1809 31.3062 10.1076 31.3983 10.0329 31.489C8.86057 32.9094 8.72445 34.6969 9.66847 36.2709C10.2532 37.2458 11.2197 37.9142 12.3899 38.1531C13.5728 38.3937 14.8196 38.1699 15.9017 37.5206L22.5687 33.5211C22.7209 33.4299 22.8283 33.285 22.8712 33.1133C22.9141 32.9417 22.8875 32.7634 22.7961 32.6112C22.608 32.2979 22.1998 32.1949 21.8864 32.3836L18.5975 34.3568C18.4194 34.4637 18.188 34.4062 18.0813 34.2279C17.9743 34.0498 18.032 33.8187 18.2102 33.7117L21.4993 31.7386L22.5675 31.0977C22.7197 31.0063 22.8274 30.8614 22.8703 30.6901C22.9132 30.5184 22.8865 30.3398 22.7951 30.1878C22.6069 29.8743 22.1986 29.7723 21.8855 29.9603L17.5281 32.5742C17.3495 32.6814 17.1189 32.6235 17.0119 32.4454C16.9049 32.2673 16.9629 32.0361 17.1408 31.9292L22.4886 28.7211C22.6408 28.6296 22.7482 28.485 22.7911 28.3132C22.834 28.1417 22.8074 27.9634 22.7162 27.8112C22.625 27.6592 22.4801 27.5518 22.3084 27.5089C22.1357 27.466 21.958 27.4927 21.8063 27.5836L20.8163 28.1775C20.8161 28.1775 20.8161 28.1778 20.8159 28.1778H20.8156L16.4585 30.7917C16.2799 30.8992 16.049 30.8412 15.9423 30.6629C15.8353 30.4848 15.8933 30.2536 16.0712 30.1467L20.4286 27.5327C20.5807 27.4413 20.6884 27.2964 20.7313 27.1251C20.7784 26.9371 20.7426 26.7449 20.6309 26.5837C20.4373 26.3036 20.0231 26.2291 19.709 26.4179L13.0469 30.4146C12.901 30.5017 12.7142 30.4805 12.5919 30.3625C12.4694 30.2442 12.4418 30.0583 12.5243 29.9097L13.9096 27.4137C14.0486 27.1642 14.0432 26.8561 13.895 26.6092L13.8951 26.6091Z" fill="#103E13"/>
<path d="M39.9514 36.6577C39.257 37.8157 38.1151 38.6083 36.7357 38.8901C35.3685 39.1688 33.9307 38.9117 32.6862 38.1656L26.0192 34.1661C25.6948 33.9715 25.4653 33.6624 25.3734 33.2953C25.2823 32.9289 25.3393 32.5484 25.5337 32.2243C25.655 32.0216 25.8251 31.8619 26.0223 31.7439L26.0204 31.7427C25.696 31.5481 25.4665 31.239 25.3751 30.8724C25.2832 30.5058 25.3402 30.125 25.5348 29.8004C25.6602 29.5919 25.8319 29.4289 26.028 29.3132C25.7433 29.1174 25.5384 28.8331 25.454 28.4957C25.3622 28.1288 25.4192 27.7483 25.6138 27.4242C25.8081 27.0997 26.1175 26.8705 26.4841 26.7789C26.5986 26.7501 26.7147 26.736 26.8297 26.736C27.0554 26.7362 27.2769 26.7935 27.4804 26.9C27.4929 26.6363 27.5714 26.3774 27.7254 26.1552C28.1479 25.5458 28.9941 25.3771 29.6534 25.7726L35.1129 29.0474L34.4092 27.7799C34.1392 27.296 34.1491 26.699 34.4353 26.2216C34.5748 25.9893 34.7741 25.7964 35.0123 25.6628C35.2081 25.5544 35.4201 25.5031 35.6293 25.5031C36.0786 25.5033 36.5149 25.7403 36.7472 26.1599C37.5567 27.6185 39.0843 30.3694 39.1917 30.5614C39.2146 30.5946 39.2836 30.6936 39.3428 30.7777C39.3991 30.8575 39.4599 30.9339 39.5228 31.0097C40.886 32.6622 41.0504 34.8262 39.9513 36.6578L39.9514 36.6577ZM38.9423 31.4892C38.8674 31.3985 38.7939 31.3059 38.727 31.2105C38.5234 30.9217 38.5182 30.9141 38.5029 30.8385C38.265 30.4448 37.6845 29.3997 36.0888 26.5249C35.9488 26.2726 35.6308 26.1805 35.3775 26.3204C35.2529 26.3901 35.1527 26.4874 35.0797 26.6093C34.9318 26.8559 34.9261 27.1641 35.0658 27.4143L36.4507 29.9095C36.5334 30.0584 36.5058 30.2441 36.3835 30.3623C36.2615 30.4808 36.0749 30.5016 35.9283 30.4144L29.2662 26.4177C28.9521 26.2295 28.5382 26.3032 28.344 26.5836C28.2324 26.7447 28.1968 26.937 28.2434 27.1247C28.2863 27.2963 28.394 27.4409 28.5464 27.5323C28.5469 27.5326 28.5471 27.533 28.5476 27.5333L32.9036 30.1465C33.0817 30.2535 33.1394 30.4844 33.0324 30.6627C32.9255 30.8406 32.6948 30.8988 32.5162 30.7916L27.1684 27.5835C27.0167 27.4925 26.8381 27.4657 26.6666 27.5088C26.4946 27.5517 26.3499 27.6591 26.2588 27.8115C26.1674 27.9635 26.141 28.1418 26.1834 28.3133C26.2263 28.4849 26.3339 28.6297 26.4861 28.7212L27.5268 29.3453L31.8337 31.9293C32.0118 32.0363 32.0696 32.2672 31.9626 32.4455C31.8556 32.6234 31.625 32.6814 31.4464 32.5744L27.0895 29.9604C26.7762 29.7719 26.3681 29.8742 26.1796 30.188C26.0882 30.3402 26.0618 30.5186 26.1042 30.6901C26.1471 30.8616 26.2548 31.0062 26.4072 31.0979L27.4754 31.7387L30.7641 33.7119C30.9422 33.8188 30.9999 34.0497 30.893 34.2281C30.786 34.4059 30.5554 34.4644 30.3768 34.3569L27.0881 32.3838C26.9364 32.2928 26.7585 32.266 26.586 32.3091C26.4145 32.352 26.2694 32.4594 26.1782 32.6114C26.087 32.7636 26.0604 32.9421 26.1028 33.1134C26.1457 33.2849 26.2534 33.4296 26.4058 33.5212L33.0728 37.5207C34.1547 38.1698 35.4024 38.3945 36.5846 38.1533C37.7546 37.9144 38.721 37.246 39.3058 36.2711C40.2508 34.6968 40.1148 32.9091 38.9427 31.4892L38.9423 31.4892Z" fill="#103E13"/>
</svg>
