<svg width="19" height="18" viewBox="0 0 19 18" fill="none" xmlns="http://www.w3.org/2000/svg">
<path fill-rule="evenodd" clip-rule="evenodd" d="M9.5 1.75C5.49594 1.75 2.25 4.99594 2.25 9C2.25 11.6786 3.70258 14.0179 5.86298 15.2731L8.80364 7.92146C8.95748 7.53687 9.39396 7.34981 9.77854 7.50364C10.1631 7.65748 10.3502 8.09396 10.1964 8.47854L8.72495 12.1571C9.28278 12.2942 9.87059 12.2818 10.4277 12.116C11.1691 11.8953 11.8076 11.4174 12.2282 10.7682C12.6489 10.119 12.8241 9.34098 12.7225 8.5741C12.6209 7.80722 12.2491 7.10173 11.6739 6.58444C11.0987 6.06716 10.3578 5.77202 9.5845 5.75207C8.81117 5.73211 8.05608 5.98866 7.45497 6.47559C6.85386 6.96252 6.44615 7.6479 6.30513 8.40852C6.16411 9.16915 6.29902 9.95513 6.68563 10.6252C6.89263 10.984 6.76959 11.4426 6.41082 11.6496C6.05204 11.8566 5.59338 11.7336 5.38637 11.3748C4.82134 10.3955 4.62415 9.24676 4.83026 8.13508C5.03637 7.0234 5.63226 6.02169 6.5108 5.31002C7.38935 4.59836 8.49294 4.2234 9.62319 4.25257C10.7534 4.28173 11.8362 4.71309 12.6769 5.46912C13.5176 6.22514 14.061 7.25625 14.2095 8.37708C14.358 9.49791 14.1019 10.635 13.4871 11.5838C12.8723 12.5327 11.9392 13.2312 10.8556 13.5537C9.9735 13.8162 9.03878 13.8156 8.16414 13.5591L7.23244 15.8883C7.94581 16.123 8.70808 16.25 9.5 16.25C13.5041 16.25 16.75 13.0041 16.75 9C16.75 4.99594 13.5041 1.75 9.5 1.75ZM0.75 9C0.75 4.16751 4.66751 0.25 9.5 0.25C14.3325 0.25 18.25 4.16751 18.25 9C18.25 13.8325 14.3325 17.75 9.5 17.75C4.66751 17.75 0.75 13.8325 0.75 9Z" fill="white"/>
</svg>
