<svg width="19" height="19" viewBox="0 0 19 19" fill="none" xmlns="http://www.w3.org/2000/svg">
<path d="M6.365 2.00009C7.11567 2.00009 7.80533 2.20309 8.434 2.60909C8.75867 2.52909 9.14433 2.48876 9.591 2.48809C11.437 2.48809 13.0093 3.15742 14.308 4.49609C15.6067 5.83476 16.256 7.45809 16.256 9.36609C16.256 9.83209 16.2053 10.3191 16.104 10.8271C16.368 11.4164 16.5 12.0144 16.5 12.6211C16.5 13.7184 16.1193 14.6568 15.358 15.4361C14.598 16.2174 13.6897 16.6084 12.633 16.6091C11.9927 16.6071 11.3639 16.4389 10.808 16.1211C10.2813 16.2024 9.87567 16.2431 9.591 16.2431C7.74433 16.2431 6.16667 15.5734 4.858 14.2341C2.895 12.2251 2.895 11.2721 2.895 9.36609C2.895 8.91942 2.94567 8.46276 3.047 7.99609C2.68068 7.37964 2.49141 6.67412 2.5 5.95709C2.5 4.86109 2.87533 3.92809 3.626 3.15809C4.37667 2.38609 5.28967 2.00009 6.365 2.00009ZM9.5 12.5301C9.09533 12.5301 8.77033 12.4691 8.525 12.3471C8.26233 12.2051 8.08 12.0634 7.978 11.9221C7.73467 11.4748 7.60267 11.2414 7.582 11.2221C7.51111 10.9929 7.38629 10.7841 7.218 10.6131C7.04147 10.4809 6.82842 10.4065 6.608 10.4001C6.47882 10.3957 6.35011 10.4178 6.22975 10.4649C6.10938 10.512 5.9999 10.5832 5.908 10.6741C5.82085 10.756 5.75154 10.8551 5.70439 10.965C5.65725 11.075 5.63329 11.1935 5.634 11.3131C5.63467 11.6984 5.77733 12.1144 6.062 12.5611C6.32533 12.9671 6.69067 13.3014 7.158 13.5641C7.806 13.9101 8.60733 14.0831 9.562 14.0831C10.352 14.0831 11.052 13.9614 11.662 13.7181C12.2707 13.4341 12.717 13.0791 13.001 12.6531C13.305 12.1858 13.457 11.6784 13.457 11.1311C13.457 10.6858 13.3763 10.2801 13.215 9.91409C13.0523 9.60942 12.7983 9.33609 12.453 9.09409C12.0883 8.87075 11.7008 8.68704 11.297 8.54609C10.8147 8.39737 10.3274 8.26529 9.836 8.15009C9.65681 8.12249 9.47896 8.08679 9.303 8.04309L8.893 7.93709C8.7141 7.88272 8.54068 7.81175 8.375 7.72509C8.21695 7.64802 8.08078 7.53248 7.979 7.38909C7.92776 7.33711 7.88781 7.2751 7.86166 7.20696C7.8355 7.13882 7.8237 7.06601 7.827 6.99309C7.827 6.75042 7.969 6.53742 8.253 6.35409C8.517 6.15076 8.90233 6.04909 9.409 6.04909C9.917 6.04909 10.2927 6.14009 10.536 6.32209C10.7993 6.54676 10.9917 6.80076 11.113 7.08409C11.2763 7.34809 11.4083 7.53042 11.509 7.63109C11.6757 7.7553 11.8792 7.82008 12.087 7.81509C12.2183 7.81517 12.3483 7.78802 12.4686 7.73535C12.5889 7.68269 12.697 7.60564 12.786 7.50909C12.8756 7.42266 12.9463 7.31859 12.9937 7.20343C13.041 7.08828 13.0639 6.96456 13.061 6.84009C13.061 6.63742 12.9897 6.37376 12.847 6.04909C12.6643 5.78108 12.4498 5.53628 12.208 5.32009C11.924 5.09609 11.5483 4.90309 11.081 4.74109C10.5765 4.5964 10.0538 4.52467 9.529 4.52809C8.799 4.52742 8.14967 4.63909 7.581 4.86309C7.01433 5.06376 6.57867 5.36742 6.274 5.77409C5.97031 6.177 5.80951 6.6696 5.817 7.17409C5.817 7.70076 5.959 8.15742 6.243 8.54409C6.58833 8.94876 6.97367 9.23242 7.399 9.39509C7.88633 9.61909 8.475 9.80176 9.165 9.94309C9.287 9.96376 9.434 9.99909 9.606 10.0491L10.063 10.1721L10.382 10.2471C10.666 10.3491 10.899 10.4914 11.081 10.6741C11.2637 10.8148 11.355 11.0278 11.355 11.3131C11.355 11.6584 11.193 11.9428 10.869 12.1661C10.505 12.4088 10.0487 12.5301 9.5 12.5301ZM6.365 9.01105e-05C4.756 9.01105e-05 3.312 0.61009 2.191 1.76509C1.086 2.89909 0.5 4.35009 0.5 5.95709C0.5 6.78909 0.656 7.57609 0.966 8.30509C0.919119 8.65714 0.895734 9.01193 0.896 9.36709C0.896 11.8051 1.749 13.9141 3.428 15.6341C5.121 17.3661 7.196 18.2441 9.592 18.2441C9.846 18.2441 10.139 18.2241 10.488 18.1841C11.178 18.4671 11.897 18.6101 12.634 18.6101C14.222 18.6101 15.659 17.9961 16.791 16.8331C17.3401 16.279 17.7739 15.6215 18.0672 14.8987C18.3606 14.1759 18.5077 13.4021 18.5 12.6221C18.5 11.9451 18.389 11.2731 18.168 10.6181C18.2267 10.2037 18.2565 9.78565 18.257 9.36709C18.257 6.93009 17.411 4.82309 15.744 3.10409C14.059 1.36909 11.989 0.48909 9.592 0.48909C9.32453 0.488359 9.0572 0.501041 8.791 0.52709C8.03088 0.175315 7.20256 -0.00461923 6.365 9.01105e-05Z" fill="white"/>
</svg>
