<svg width="19" height="13" viewBox="0 0 19 13" fill="none" xmlns="http://www.w3.org/2000/svg">
<path fill-rule="evenodd" clip-rule="evenodd" d="M16.1677 0.499581C16.9021 0.701091 17.4804 1.29484 17.6767 2.04884C18.0333 3.41539 18.0333 6.2667 18.0333 6.2667C18.0333 6.2667 18.0333 9.1179 17.6767 10.4845C17.4804 11.2386 16.9021 11.8323 16.1677 12.0339C14.8369 12.4 9.50001 12.4 9.50001 12.4C9.50001 12.4 4.16309 12.4 2.83218 12.0339C2.09783 11.8323 1.5195 11.2386 1.32323 10.4845C0.966675 9.1179 0.966675 6.2667 0.966675 6.2667C0.966675 6.2667 0.966675 3.41539 1.32323 2.04884C1.5195 1.29484 2.09783 0.701091 2.83218 0.499581C4.16309 0.133362 9.50001 0.133362 9.50001 0.133362C9.50001 0.133362 14.8369 0.133362 16.1677 0.499581ZM7.90002 3.86664V9.19997L12.1667 6.53341L7.90002 3.86664Z" fill="white"/>
</svg>
